<?xml version="1.0" encoding="UTF-8"?>
<svg width="200px" height="200px" viewBox="0 0 200 200" version="1.1" xmlns="http://www.w3.org/2000/svg" xmlns:xlink="http://www.w3.org/1999/xlink">
    <!-- Generator: Sketch 40.2 (33826) - http://www.bohemiancoding.com/sketch -->
    <title>iso-pic</title>
    <desc>Created with Sketch.</desc>
    <defs>
        <path d="M0.101322,61.109504 C0.101322,94.7988406 27.4119852,122.109504 61.101322,122.109504 C94.7906589,122.109504 122.101322,94.7988406 122.101322,61.109504 C122.101322,27.420167 94.7906589,0.109504 61.101322,0.109504 C27.4119852,0.109504 0.101322,27.420167 0.101322,61.109504 L0.101322,61.109504 L0.101322,61.109504 Z" id="path-1"></path>
        <path d="M62.5568194,1.62299014 C60.1101938,2.70455488 58.0468987,4.19636832 56.3656476,6.09843046 C54.6850396,8.00113562 53.3961233,10.2298535 52.4995419,12.785227 C51.6029604,15.3399575 51.1546696,18.1101008 51.1546696,21.0937276 C51.1546696,24.0034069 51.6029604,26.7169641 52.4995419,29.2350423 C53.3961233,31.7531205 54.6850396,33.944543 56.3656476,35.8093098 C58.0468987,37.6747196 60.1101938,39.1388831 62.5568194,40.2018001 C65.0034449,41.2653602 67.7581498,41.7964973 70.8209339,41.7964973 C73.921022,41.7964973 76.6860176,41.2653602 79.113348,40.2018001 C81.5413216,39.1388831 83.5956123,37.6747196 85.2768634,35.8093098 C86.9574714,33.944543 88.2463877,31.7531205 89.1429692,29.2350423 C90.0395507,26.7169641 90.4878414,24.0034069 90.4878414,21.0937276 C90.4878414,18.1101008 90.0395507,15.3399575 89.1429692,12.785227 C88.2463877,10.2298535 86.9574714,8.00113562 85.2768634,6.09843046 C83.5956123,4.19636832 81.5413216,2.70455488 79.113348,1.62299014 C76.6860176,0.540782372 73.921022,0 70.8209339,0 C67.7581498,0 65.0034449,0.540782372 62.5568194,1.62299014 L62.5568194,1.62299014 L62.5568194,1.62299014 Z M65.778467,33.3201676 C64.3962907,32.5549702 63.2765286,31.5383508 62.4166079,30.2703094 C61.5573304,29.0022679 60.9315242,27.5753998 60.5398326,25.989705 C60.1474978,24.4046532 59.9513304,22.7726608 59.9513304,21.0937276 C59.9513304,19.3408468 60.1474978,17.643266 60.5398326,16.0022712 C60.9315242,14.3612765 61.5573304,12.897113 62.4166079,11.6104239 C63.2765286,10.3230918 64.3962907,9.29747006 65.778467,8.53291567 C67.1606432,7.76836128 68.8412511,7.38576258 70.8209339,7.38576258 C72.8012599,7.38576258 74.4818678,7.76836128 75.8640441,8.53291567 C77.2455771,9.29747006 78.3666256,10.3230918 79.2259031,11.6104239 C80.0851806,12.897113 80.7109868,14.3612765 81.1026784,16.0022712 C81.4950132,17.643266 81.6905374,19.3408468 81.6905374,21.0937276 C81.6905374,22.7726608 81.4950132,24.4046532 81.1026784,25.989705 C80.7109868,27.5753998 80.0851806,29.0022679 79.2259031,30.2703094 C78.3666256,31.5383508 77.2455771,32.5549702 75.8640441,33.3201676 C74.4818678,34.084722 72.8012599,34.4666777 70.8209339,34.4666777 C68.8412511,34.4666777 67.1606432,34.084722 65.778467,33.3201676 L65.778467,33.3201676 L65.778467,33.3201676 Z M24.9331982,0.727259052 C23.1400352,1.21274144 21.5340352,1.95864816 20.1145551,2.96562224 C18.6950749,3.97259631 17.5470132,5.23163541 16.6684405,6.74209652 C15.7911542,8.25320065 15.352511,10.0337314 15.352511,12.0856179 C15.352511,13.9137324 15.6978943,15.4711342 16.3886608,16.7578233 C17.0794273,18.0445124 17.9856564,19.1170748 19.1060617,19.9748676 C20.2271101,20.8326603 21.4967313,21.5322693 22.9162115,22.0730517 C24.3356916,22.6144771 25.7924758,23.0716665 27.2865639,23.4439768 C28.7427048,23.8542255 30.1814802,24.2278219 31.6009604,24.5634799 C33.0197974,24.899138 34.2900617,25.290739 35.410467,25.738283 C36.5315154,26.185827 37.4371013,26.7452571 38.1278678,27.4172162 C38.8192775,28.0885322 39.1646608,28.9643296 39.1646608,30.0465373 C39.1646608,31.0535114 38.9028899,31.8836542 38.3799912,32.5363225 C37.8577357,33.1889909 37.20363,33.7021233 36.4189604,34.0750767 C35.6349339,34.44803 34.7943084,34.699452 33.8977269,34.8306287 C33.0017885,34.9611624 32.161163,35.0261077 31.3764934,35.0261077 C30.218141,35.0261077 29.0977357,34.8865717 28.0146344,34.6062137 C26.931533,34.3271417 25.988,33.8982453 25.1853216,33.3201676 C24.3826432,32.7420899 23.7375419,31.9858948 23.2525903,31.0535114 C22.7669956,30.121128 22.5238767,28.9836203 22.5238767,27.6403451 L14.0076388,27.6403451 C13.9696916,30.1024803 14.4179824,32.2283145 15.352511,34.0191337 C16.2857533,35.8093098 17.5470132,37.2831186 19.1337181,38.439274 C20.7217093,39.5954294 22.5521762,40.4448628 24.6251189,40.9850022 C26.6980617,41.5264276 28.8366079,41.7964973 31.0401145,41.7964973 C33.767163,41.7964973 36.1674802,41.4794869 38.2404229,40.8448232 C40.3127225,40.2114455 42.0499295,39.3253597 43.4507577,38.187209 C44.8515859,37.0497012 45.9070308,35.6980668 46.6164493,34.1310197 C47.326511,32.5639725 47.6815419,30.8670347 47.6815419,29.0389203 C47.6815419,26.8012001 47.2049515,24.9640833 46.2517709,23.5282128 C45.2998767,22.0923424 44.1698238,20.9451893 42.8622555,20.0867536 C41.5553304,19.2289608 40.2381145,18.6039424 38.9118943,18.2123414 C37.5863172,17.8207404 36.5501674,17.5506707 35.8028018,17.4008463 C33.3002203,16.7674687 31.2735859,16.2446909 29.7235419,15.8344422 C28.1734978,15.4241935 26.9591894,15.0139448 26.0819031,14.6036961 C25.2039736,14.1934474 24.6154714,13.7459034 24.3170396,13.261064 C24.0179648,12.7755817 23.8681057,12.1415609 23.8681057,11.3583589 C23.8681057,10.5005662 24.0552687,9.79131175 24.4289515,9.23252473 C24.8026344,8.67309469 25.2785815,8.20625997 25.8580793,7.83394963 C26.4369339,7.46035325 27.0807489,7.1992859 27.7908106,7.05010455 C28.5002291,6.90092321 29.2102907,6.82633254 29.9197093,6.82633254 C31.0028106,6.82633254 32.0022996,6.91892785 32.917533,7.10604756 C33.8321233,7.29252424 34.6450925,7.60953459 35.354511,8.05707863 C36.0639295,8.50526568 36.6337797,9.1199957 37.0634185,9.90384078 C37.4930573,10.6870428 37.7451806,11.6753692 37.8197885,12.86882 L46.3366696,12.86882 C46.3366696,10.5565092 45.8973833,8.58885868 45.0194537,6.96586854 C44.1421674,5.34352142 42.9561586,4.00989164 41.4620705,2.96562224 C39.9673392,1.9207098 38.2584317,1.16580076 36.335348,0.698966039 C34.4116211,0.233417362 32.4036388,0 30.3120441,0 C28.5188811,0 26.7263612,0.242419684 24.9331982,0.727259052 L24.9331982,0.727259052 L24.9331982,0.727259052 Z M0,40.9014092 L8.79666079,40.9014092 L8.79666079,0.951674091 L0,0.951674091 L0,40.9014092 L0,40.9014092 L0,40.9014092 Z" id="path-3"></path>
        <path d="M23.4654802,0.700895108 C22.8383877,1.16837285 22.3489339,1.76381218 21.9990485,2.48849914 C21.6485198,3.2131861 21.4105463,4.0086056 21.2851278,4.87540065 C21.1597093,5.7421957 21.0966784,6.58198378 21.0966784,7.3947649 C21.0966784,8.20754602 21.1597093,9.0473341 21.2851278,9.91412915 C21.4105463,10.7809242 21.6485198,11.5763437 21.9990485,12.3010307 C22.3489339,13.0257176 22.8383877,13.6211569 23.4654802,14.0886347 C24.093859,14.5561124 24.9036123,14.7895298 25.8947401,14.7895298 C26.8858678,14.7895298 27.6956211,14.5561124 28.3233568,14.0886347 C28.9517357,13.6211569 29.4405463,13.0257176 29.7904317,12.3010307 C30.1409604,11.5763437 30.3789339,10.7809242 30.5043524,9.91412915 C30.6297709,9.0473341 30.6934449,8.20754602 30.6934449,7.3947649 C30.6934449,6.58198378 30.6297709,5.7421957 30.5043524,4.87540065 C30.3789339,4.0086056 30.1409604,3.2131861 29.7904317,2.48849914 C29.4405463,1.76381218 28.9517357,1.16837285 28.3233568,0.700895108 C27.6956211,0.233417362 26.8858678,0 25.8947401,0 C24.9036123,0 24.093859,0.233417362 23.4654802,0.700895108 L23.4654802,0.700895108 L23.4654802,0.700895108 Z M24.6559912,12.422562 C24.3318326,12.1319156 24.0739207,11.7383855 23.8822555,11.2445438 C23.6905903,10.7500591 23.5555242,10.1713384 23.4757709,9.50773859 C23.3966608,8.84413882 23.3567841,8.13938557 23.3567841,7.3947649 C23.3567841,6.65014423 23.3966608,5.94924912 23.4757709,5.29207958 C23.5555242,4.63555306 23.6905903,4.0561893 23.8822555,3.55527436 C24.0739207,3.05371639 24.3318326,2.6576142 24.6559912,2.36696779 C24.9795066,2.07567836 25.3924229,1.92971213 25.8947401,1.92971213 C26.3835507,1.92971213 26.7932511,2.07567836 27.1238414,2.36696779 C27.4544317,2.6576142 27.7155595,3.05371639 27.9072247,3.55527436 C28.0988899,4.0561893 28.2339559,4.63555306 28.3137093,5.29207958 C28.3928194,5.94924912 28.432696,6.65014423 28.432696,7.3947649 C28.432696,8.13938557 28.3928194,8.84413882 28.3137093,9.50773859 C28.2339559,10.1713384 28.0988899,10.7500591 27.9072247,11.2445438 C27.7155595,11.7383855 27.4544317,12.1319156 27.1238414,12.422562 C26.7932511,12.7138514 26.3835507,12.8598177 25.8947401,12.8598177 C25.3924229,12.8598177 24.9795066,12.7138514 24.6559912,12.422562 L24.6559912,12.422562 L24.6559912,12.422562 Z M12.9374009,0.700895108 C12.3096652,1.16837285 11.8202115,1.76381218 11.4696828,2.48849914 C11.1197974,3.2131861 10.8818238,4.0086056 10.7564053,4.87540065 C10.6309868,5.7421957 10.5679559,6.58198378 10.5679559,7.3947649 C10.5679559,8.20754602 10.6309868,9.0473341 10.7564053,9.91412915 C10.8818238,10.7809242 11.1197974,11.5763437 11.4696828,12.3010307 C11.8202115,13.0257176 12.3096652,13.6211569 12.9374009,14.0886347 C13.5657797,14.5561124 14.3748899,14.7895298 15.3660176,14.7895298 C16.3577885,14.7895298 17.1668987,14.5561124 17.7952775,14.0886347 C18.4230132,13.6211569 18.912467,13.0257176 19.2623524,12.3010307 C19.6128811,11.5763437 19.8508546,10.7809242 19.9762731,9.91412915 C20.1016916,9.0473341 20.1647225,8.20754602 20.1647225,7.3947649 C20.1647225,6.58198378 20.1016916,5.7421957 19.9762731,4.87540065 C19.8508546,4.0086056 19.6128811,3.2131861 19.2623524,2.48849914 C18.912467,1.76381218 18.4230132,1.16837285 17.7952775,0.700895108 C17.1668987,0.233417362 16.3577885,0 15.3660176,0 C14.3748899,0 13.5657797,0.233417362 12.9374009,0.700895108 L12.9374009,0.700895108 L12.9374009,0.700895108 Z M14.1272687,12.422562 C13.8031101,12.1319156 13.5458414,11.7383855 13.353533,11.2445438 C13.1618678,10.7500591 13.0268018,10.1713384 12.9470485,9.50773859 C12.8679383,8.84413882 12.8287048,8.13938557 12.8287048,7.3947649 C12.8287048,6.65014423 12.8679383,5.94924912 12.9470485,5.29207958 C13.0268018,4.63555306 13.1618678,4.0561893 13.353533,3.55527436 C13.5458414,3.05371639 13.8031101,2.6576142 14.1272687,2.36696779 C14.4514273,2.07567836 14.8637004,1.92971213 15.3660176,1.92971213 C15.8554714,1.92971213 16.2651718,2.07567836 16.5957621,2.36696779 C16.9263524,2.6576142 17.1874802,3.05371639 17.3791454,3.55527436 C17.5708106,4.0561893 17.7058767,4.63555306 17.7849868,5.29207958 C17.8647401,5.94924912 17.9039736,6.65014423 17.9039736,7.3947649 C17.9039736,8.13938557 17.8647401,8.84413882 17.7849868,9.50773859 C17.7058767,10.1713384 17.5708106,10.7500591 17.3791454,11.2445438 C17.1874802,11.7383855 16.9263524,12.1319156 16.5957621,12.422562 C16.2651718,12.7138514 15.8554714,12.8598177 15.3660176,12.8598177 C14.8637004,12.8598177 14.4514273,12.7138514 14.1272687,12.422562 L14.1272687,12.422562 L14.1272687,12.422562 Z M2.75599119,0.365880107 C2.16170044,0.608942814 1.65874009,0.951031068 1.24903965,1.39150185 C0.839339207,1.8313296 0.528687225,2.34639105 0.3170837,2.93540015 C0.106123348,3.52505228 0,4.16421717 0,4.85546694 C0,5.58658413 0.106123348,6.24696878 0.3170837,6.83662091 C0.528687225,7.42563001 0.825832599,7.92654495 1.209163,8.33936574 C1.59313656,8.75218653 2.05236123,9.07434107 2.58748018,9.30454331 C3.12259912,9.53474556 3.7207489,9.64984668 4.38192952,9.64984668 C5.01609692,9.64984668 5.5981674,9.50452348 6.12685463,9.21323404 C6.65554185,8.92194461 7.07167401,8.49819243 7.37589427,7.94326355 L7.41577093,7.983774 C7.37589427,8.45768198 7.31993833,8.97595854 7.24661674,9.53796067 C7.1745815,10.1006058 7.03887225,10.6278847 6.84013216,11.1230125 C6.64203524,11.6168541 6.36161233,12.030318 5.99822026,12.3621178 C5.63482819,12.6932747 5.14859031,12.8598177 4.54079295,12.8598177 C3.94521586,12.8598177 3.47312775,12.6804142 3.12259912,12.3216074 C2.77271366,11.9621575 2.57075771,11.4914647 2.51801762,10.9095288 L0.257268722,10.9095288 C0.284281938,11.4914647 0.416132159,12.0200296 0.654105727,12.4939376 C0.892079295,12.9678455 1.19951542,13.3742361 1.5764141,13.7124662 C1.95331278,14.0513394 2.3861674,14.3156218 2.87497797,14.5046706 C3.36443172,14.6950054 3.88668722,14.7895298 4.44174449,14.7895298 C5.41936564,14.7895298 6.24262555,14.5664008 6.90959471,14.1188568 C7.57720705,13.6719558 8.11618502,13.093235 8.52588546,12.3820516 C8.9355859,11.6708681 9.23015859,10.8818788 9.40831718,10.0150838 C9.58647577,9.14893174 9.67587665,8.28920994 9.67587665,7.43527535 C9.67587665,6.4064385 9.60319824,5.43740278 9.45784141,4.53009728 C9.31184141,3.62279178 9.05778855,2.83380251 8.69439648,2.16377251 C8.33100441,1.49309949 7.83190308,0.965177575 7.19773568,0.579363754 C6.56292511,0.19290691 5.75703084,0 4.77876652,0 C4.02496916,0 3.35092511,0.122174377 2.75599119,0.365880107 L2.75599119,0.365880107 L2.75599119,0.365880107 Z M3.608837,7.56709507 C3.30461674,7.39798002 3.05313656,7.17806614 2.85503965,6.90735344 C2.65694273,6.63599772 2.50837004,6.32091643 2.40932159,5.96210958 C2.30962996,5.60330272 2.26010573,5.22777727 2.26010573,4.8348902 C2.26010573,4.45614963 2.30962996,4.09026952 2.40932159,3.7378929 C2.50837004,3.3861593 2.65694273,3.07429313 2.85503965,2.80358043 C3.05313656,2.53222471 3.30461674,2.31938409 3.608837,2.16377251 C3.9124141,2.00816094 4.26937445,1.92971213 4.67971806,1.92971213 C5.10228194,1.92971213 5.4727489,2.01073303 5.7898326,2.17341786 C6.1069163,2.33610269 6.36804405,2.54958633 6.57257269,2.8138688 C6.77774449,3.07750824 6.9327489,3.3861593 7.03887225,3.7378929 C7.14499559,4.09026952 7.19773568,4.45614963 7.19773568,4.8348902 C7.19773568,5.22777727 7.14499559,5.60330272 7.03887225,5.96210958 C6.9327489,6.32091643 6.77774449,6.63985586 6.57257269,6.91699879 C6.36804405,7.19478474 6.1069163,7.41469861 5.7898326,7.57738344 C5.4727489,7.74006827 5.10228194,7.82108917 4.67971806,7.82108917 C4.26937445,7.82108917 3.9124141,7.73685315 3.608837,7.56709507 L3.608837,7.56709507 L3.608837,7.56709507 Z M36.0066872,0.284859204 C35.9269339,0.71825673 35.7584229,1.08349381 35.5011542,1.38121348 C35.2432423,1.67957617 34.9325903,1.92263887 34.5691982,2.11297369 C34.2058062,2.30266549 33.7993216,2.43834335 33.3503877,2.51872123 C32.9001674,2.60038515 32.4377269,2.6408956 31.9617797,2.6408956 L31.9617797,4.46965311 L35.3718767,4.46965311 L35.3718767,14.5046706 L37.8506608,14.5046706 L37.8506608,0.284859204 L36.0066872,0.284859204 L36.0066872,0.284859204 L36.0066872,0.284859204 Z M42.8075859,6.96844063 L45.5635771,6.96844063 L45.5635771,4.22594738 L42.8075859,4.22594738 L42.8075859,6.96844063 L42.8075859,6.96844063 L42.8075859,6.96844063 Z M42.8075859,14.5046706 L45.5635771,14.5046706 L45.5635771,11.7621774 L42.8075859,11.7621774 L42.8075859,14.5046706 L42.8075859,14.5046706 L42.8075859,14.5046706 Z" id="path-5"></path>
        <path d="M12.829348,0.700895108 C12.2016123,1.16837285 11.7128018,1.76381218 11.3629163,2.48849914 C11.0130308,3.2131861 10.7750573,4.0086056 10.6496388,4.87540065 C10.5242203,5.7421957 10.4611894,6.58198378 10.4611894,7.3947649 C10.4611894,8.20754602 10.5242203,9.0473341 10.6496388,9.91412915 C10.7750573,10.7809242 11.0130308,11.5763437 11.3629163,12.3010307 C11.7128018,13.0257176 12.2016123,13.6211569 12.829348,14.0886347 C13.4564405,14.5561124 14.2655507,14.7895298 15.2566784,14.7895298 C16.247163,14.7895298 17.0562731,14.5561124 17.6833656,14.0886347 C18.3104581,13.6211569 18.7999119,13.0257176 19.1491542,12.3010307 C19.4996828,11.5763437 19.7376564,10.7809242 19.8630749,9.91412915 C19.9878502,9.0473341 20.0508811,8.20754602 20.0508811,7.3947649 C20.0508811,6.58198378 19.9878502,5.7421957 19.8630749,4.87540065 C19.7376564,4.0086056 19.4996828,3.2131861 19.1491542,2.48849914 C18.7999119,1.76381218 18.3104581,1.16837285 17.6833656,0.700895108 C17.0562731,0.233417362 16.247163,0 15.2566784,0 C14.2655507,0 13.4564405,0.233417362 12.829348,0.700895108 L12.829348,0.700895108 L12.829348,0.700895108 Z M14.0179295,12.422562 C13.6944141,12.1319156 13.4365022,11.7383855 13.244837,11.2445438 C13.0531718,10.7500591 12.9187489,10.1713384 12.8389956,9.50773859 C12.7598855,8.84413882 12.7200088,8.13938557 12.7200088,7.3947649 C12.7200088,6.65014423 12.7598855,5.94924912 12.8389956,5.29207958 C12.9187489,4.63555306 13.0531718,4.0561893 13.244837,3.55527436 C13.4365022,3.05371639 13.6944141,2.6576142 14.0179295,2.36696779 C14.3414449,2.07567836 14.7543612,1.92971213 15.2566784,1.92971213 C15.7448458,1.92971213 16.1545463,2.07567836 16.4851366,2.36696779 C16.8150837,2.6576142 17.0755683,3.05371639 17.2672335,3.55527436 C17.4588987,4.0561893 17.5939648,4.63555306 17.6730749,5.29207958 C17.7528282,5.94924912 17.7927048,6.65014423 17.7927048,7.3947649 C17.7927048,8.13938557 17.7528282,8.84413882 17.6730749,9.50773859 C17.5939648,10.1713384 17.4588987,10.7500591 17.2672335,11.2445438 C17.0755683,11.7383855 16.8150837,12.1319156 16.4851366,12.422562 C16.1545463,12.7138514 15.7448458,12.8598177 15.2566784,12.8598177 C14.7543612,12.8598177 14.3414449,12.7138514 14.0179295,12.422562 L14.0179295,12.422562 L14.0179295,12.422562 Z M2.98174449,0.416678927 C2.39388546,0.694464878 1.89542731,1.07706358 1.48637004,1.56383202 C1.07602643,2.0518865 0.769876652,2.63060724 0.564704846,3.30128026 C0.35953304,3.97131026 0.257911894,4.69985536 0.257911894,5.48498649 L2.51673128,5.48498649 C2.52895154,4.98407154 2.57911894,4.5165938 2.66466079,4.08319627 C2.75084581,3.64979875 2.88269604,3.27427329 3.0614978,2.95597689 C3.23965639,2.63768049 3.47762996,2.38690151 3.77413216,2.20428296 C4.0719207,2.0210214 4.44496035,1.92971213 4.89389427,1.92971213 C5.38270485,1.92971213 5.77889868,2.01459117 6.08311894,2.18370623 C6.38669604,2.35282128 6.62402643,2.56308982 6.7957533,2.8138688 C6.96812335,3.06400476 7.0832511,3.33471746 7.14242291,3.62600689 C7.20223789,3.91729633 7.23182379,4.19122414 7.23182379,4.44907638 C7.21831718,5.00400526 7.08003524,5.49527486 6.81569163,5.92224215 C6.55199119,6.34856642 6.21496916,6.74466861 5.80526872,7.11054872 C5.39556828,7.4757858 4.94663436,7.81787406 4.45782379,8.13617046 C3.96965639,8.45446686 3.50078414,8.78305163 3.05120705,9.12192477 C2.11346256,9.77137804 1.37381498,10.5365754 0.832264317,11.417517 C0.290713656,12.2978155 0.0128634361,13.3266524 0,14.5046706 L9.47070485,14.5046706 L9.47070485,12.4328504 L2.71418502,12.4328504 C2.80744493,12.1209842 2.97852863,11.8264797 3.22936564,11.5493367 C3.48020264,11.2715508 3.77413216,11.0040532 4.11115419,10.746844 C4.44817621,10.4889917 4.81478414,10.2324256 5.21097797,9.97457332 C5.60717181,9.71800712 6.00336564,9.44600838 6.39955947,9.16243522 C6.7957533,8.87821904 7.1790837,8.5727831 7.54890749,8.24805647 C7.91873128,7.92332983 8.24867841,7.56709507 8.53939207,7.18128125 C8.83010573,6.79546743 9.06100441,6.37235827 9.23273128,5.91131076 C9.40510132,5.45154929 9.49064317,4.93648784 9.49064317,4.36805548 C9.49064317,3.90765098 9.41796476,3.42281161 9.27260793,2.91546644 C9.12789427,2.40747824 8.87962996,1.93678538 8.52974449,1.50338786 C8.17921586,1.06999033 7.72063436,0.711183476 7.15271366,0.426324272 C6.58479295,0.142108091 5.87794714,0 5.03281938,0 C4.25329515,0 3.56960352,0.138892976 2.98174449,0.416678927 L2.98174449,0.416678927 L2.98174449,0.416678927 Z M33.2268987,0.284859204 L31.7411718,8.0647949 L33.9999912,8.0647949 C34.1845815,7.56452298 34.4849427,7.22243473 34.9010749,7.03917316 C35.317207,6.85655462 35.7629251,6.76524535 36.2388722,6.76524535 C36.6878062,6.76524535 37.0807841,6.84626625 37.417163,7.00895108 C37.754185,7.17163591 38.0288194,7.38769165 38.2397797,7.65840434 C38.4513833,7.92976006 38.6096035,8.24484135 38.7150837,8.60364821 C38.821207,8.96245506 38.8739471,9.33798051 38.8739471,9.73086759 C38.8739471,10.1642651 38.8308546,10.5706557 38.7446696,10.9500393 C38.6591278,11.3287798 38.5137709,11.6612227 38.3085991,11.9454389 C38.1047137,12.2302981 37.8371542,12.4534271 37.5065639,12.6161119 C37.1766167,12.7787968 36.7739912,12.8598177 36.2980441,12.8598177 C35.5583965,12.8598177 34.9641057,12.6527643 34.5151718,12.2399435 C34.0655947,11.8264797 33.808326,11.2342554 33.7420793,10.4626278 L31.4839031,10.4626278 C31.50963,11.1802415 31.6517709,11.8065459 31.9096828,12.3415411 C32.1669515,12.8765363 32.5136211,13.3266524 32.9496916,13.6925325 C33.3857621,14.0584126 33.890652,14.3323404 34.4650044,14.515602 C35.04,14.6982205 35.6638767,14.7895298 36.3379207,14.7895298 C37.1830485,14.7895298 37.9091894,14.6307031 38.5169868,14.3124067 C39.1247841,13.9941103 39.6232423,13.5877197 40.0130044,13.093235 C40.4027665,12.5987503 40.6870485,12.0502517 40.865207,11.4477391 C41.0433656,10.8452265 41.1327665,10.2594325 41.1327665,9.69035713 C41.1327665,9.01325388 41.0369339,8.3830913 40.8452687,7.80115546 C40.6536035,7.21857659 40.3731806,6.71444653 40.0033568,6.28747923 C39.633533,5.86115496 39.1775242,5.52871205 38.6359736,5.29207958 C38.0944229,5.05480408 37.4801938,4.93648784 36.7932863,4.93648784 C36.3308458,4.93648784 35.8658326,5.02779711 35.3969604,5.21041565 C34.9274449,5.39367722 34.5408987,5.6611748 34.2373216,6.01355142 L34.1980881,5.97304097 L34.9107225,2.35667942 L40.3995507,2.35667942 L40.3995507,0.284859204 L33.2268987,0.284859204 L33.2268987,0.284859204 L33.2268987,0.284859204 Z M25.3609075,0.284859204 C25.2817974,0.71825673 25.1132863,1.08349381 24.8553744,1.38121348 C24.5981057,1.67957617 24.2880969,1.92263887 23.9247048,2.11297369 C23.5613128,2.30266549 23.1548282,2.43834335 22.7058943,2.51872123 C22.2569604,2.60038515 21.7945198,2.6408956 21.3185727,2.6408956 L21.3185727,4.46965311 L24.7273833,4.46965311 L24.7273833,14.5046706 L27.2035947,14.5046706 L27.2035947,0.284859204 L25.3609075,0.284859204 L25.3609075,0.284859204 L25.3609075,0.284859204 Z" id="path-7"></path>
    </defs>
    <g id="Page-1" stroke="none" stroke-width="1" fill="none" fill-rule="evenodd">
        <g id="iso-pic">
            <g id="Group-3" transform="translate(2.810573, 2.810126)">
                <path d="M2.64317181,97.1675579 C2.64317181,149.372026 44.9728811,191.691944 97.1894273,191.691944 C149.405974,191.691944 191.735683,149.372026 191.735683,97.1675579 C191.735683,44.9630898 149.405974,2.64317181 97.1894273,2.64317181 C44.9728811,2.64317181 2.64317181,44.9630898 2.64317181,97.1675579 L2.64317181,97.1675579 L2.64317181,97.1675579 Z" id="Clip-2"></path>
                <path d="M97.1894273,193.621013 C150.471709,193.621013 193.665198,150.437515 193.665198,97.1675579 C193.665198,43.8976006 150.471709,0.714102702 97.1894273,0.714102702 C43.9071454,0.714102702 0.713656388,43.8976006 0.713656388,97.1675579 C0.713656388,150.437515 43.9071454,193.621013 97.1894273,193.621013" id="Fill-1" fill="#FFFFFF"></path>
            </g>
            <path d="M200,99.9776843 C200,44.7611665 155.228477,0 100,0 C44.7715226,0 0,44.7611665 0,99.9776843 C0,155.194202 44.7715226,199.955369 100,199.955369 C155.228477,199.955369 200,155.194202 200,99.9776843 L200,99.9776843 Z M7.04845815,99.9776843 C7.04845815,48.6542875 48.6639136,7.04845815 100,7.04845815 C151.336086,7.04845815 192.951542,48.6542875 192.951542,99.9776843 C192.951542,151.301081 151.336086,192.90691 100,192.90691 C48.6639136,192.90691 7.04845815,151.301081 7.04845815,99.9776843 L7.04845815,99.9776843 Z" id="Stroke-4" fill="#0974B8"></path>
            <g id="Group-8" transform="translate(38.898678, 38.890496)">
                <g id="Fill-6-Clipped">
                    <mask id="mask-2" fill="white">
                        <use xlink:href="#path-1"></use>
                    </mask>
                    <use id="path-1" fill="#0E77BA" xlink:href="#path-1"></use>
                </g>
            </g>
            <path d="M168.008811,99.9776843 C168.008811,62.4260388 137.559926,31.9841972 100,31.9841972 C62.4400741,31.9841972 31.9911895,62.4260387 31.9911895,99.9776843 C31.9911895,137.52933 62.440074,167.971172 100,167.971172 C137.559926,167.971172 168.008811,137.52933 168.008811,99.9776843 Z M35.5154185,99.9776843 C35.5154185,64.3725992 64.3862696,35.5084262 100,35.5084262 C135.61373,35.5084262 164.484581,64.3725993 164.484581,99.9776843 C164.484581,135.58277 135.61373,164.446942 100,164.446942 C64.3862694,164.446942 35.5154185,135.58277 35.5154185,99.9776843 Z" id="Stroke-9" fill="#0974B8"></path>
            <g id="Group-13" transform="translate(56.907489, 68.469556)">
                <g id="Fill-11-Clipped">
                    <mask id="mask-4" fill="white">
                        <use xlink:href="#path-3"></use>
                    </mask>
                    <use id="path-3" fill="#FFFFFF" xlink:href="#path-3"></use>
                </g>
            </g>
            <g id="Group-16" transform="translate(55.621145, 116.696283)">
                <g id="Fill-14-Clipped">
                    <mask id="mask-6" fill="white">
                        <use xlink:href="#path-5"></use>
                    </mask>
                    <use id="path-5" fill="#FFFFFF" xlink:href="#path-5"></use>
                </g>
            </g>
            <g id="Group-19" transform="translate(105.145374, 116.696283)">
                <g id="Fill-17-Clipped">
                    <mask id="mask-8" fill="white">
                        <use xlink:href="#path-7"></use>
                    </mask>
                    <use id="path-7" fill="#FFFFFF" xlink:href="#path-7"></use>
                </g>
            </g>
            <g id="Group-52" transform="translate(42.114537, 11.883529)" fill="#0A74B8">
                <path d="M9.05811013,21.3374977 C8.69793392,21.0745012 8.32811013,20.8648757 7.94799559,20.7079781 C7.56788106,20.5517235 7.17490308,20.4681305 6.77034802,20.4578422 C6.36579295,20.4475538 5.95802203,20.5157142 5.54767841,20.6629665 C5.1373348,20.8102188 4.72184581,21.0564966 4.30185463,21.4005139 C3.68826872,21.9033579 3.25927313,22.462145 3.01486784,23.076232 C2.7717489,23.6903189 2.67977533,24.3191955 2.73894714,24.9628615 C2.79876211,25.6071706 2.97756388,26.2482646 3.27599559,26.8855004 C3.57378414,27.5240223 3.94811013,28.1175325 4.39768722,28.6666742 C4.84855066,29.2158159 5.35729956,29.6993692 5.92393392,30.1160481 C6.49121145,30.5340131 7.08485903,30.8349479 7.70487665,31.0201385 C8.32489427,31.2053292 8.95970485,31.2381233 9.60995154,31.1198071 C10.2595551,31.0014909 10.891793,30.6902677 11.506022,30.1867807 C11.9581718,29.8163994 12.2926211,29.4119379 12.50937,28.9733962 C12.7261189,28.5348545 12.8451057,28.0763791 12.8682599,27.598613 C12.8907709,27.1214899 12.8219515,26.6424377 12.6618018,26.1614565 C12.501652,25.6804752 12.2707533,25.2123545 11.9697489,24.7570942 L13.9410705,23.1418203 C14.4626828,23.8665073 14.8312203,24.6182012 15.0460396,25.3962591 C15.260859,26.1743169 15.3226035,26.9472306 15.2319163,27.7143571 C15.1405859,28.4821266 14.8968238,29.2171019 14.50063,29.9199261 C14.1044361,30.6227503 13.5564537,31.2612722 12.8560396,31.8348487 C11.9941894,32.540888 11.0918194,33.014796 10.147,33.2578587 C9.20282379,33.5009214 8.26829515,33.5414318 7.34470044,33.3806761 C6.42046256,33.2199203 5.53159912,32.877189 4.67811013,32.3524823 C3.82462115,31.8277755 3.05860352,31.1506722 2.37877093,30.3211725 C1.70794273,29.5032472 1.19855066,28.6242347 0.851237885,27.684778 C0.50392511,26.7453214 0.342488987,25.8065078 0.366286344,24.8689802 C0.389440529,23.9314526 0.611334802,23.020932 1.03068282,22.1374183 C1.44938767,21.2539047 2.08998678,20.4591282 2.95119383,19.7530889 C3.5975815,19.2232379 4.27870044,18.8136323 4.995837,18.5236289 C5.71168722,18.2329825 6.42753744,18.0792999 7.14210132,18.0606523 C7.85602203,18.0426476 8.54614537,18.165465 9.21311454,18.4291045 C9.87944053,18.6933869 10.5013877,19.1113519 11.0776696,19.6823564 L9.05811013,21.3374977 L9.05811013,21.3374977 Z" id="Fill-20"></path>
                <polygon id="Fill-22" points="13.9855137 12.3662332 23.5475489 7.48311626 24.5734079 9.49192023 17.3370819 13.1873736 19.1141656 16.6654852 25.8108705 13.2452457 26.7801304 15.1421636 20.0827824 18.5624032 22.0688969 22.4494774 29.4357868 18.6877926 30.462289 20.6965966 20.7696899 25.6459449"></polygon>
                <path d="M34.2979084,10.8896594 L38.4373621,9.79394814 C39.2451859,9.57982147 39.8066749,9.22615881 40.1224722,8.73231711 C40.4382696,8.2378324 40.4948687,7.60766983 40.2916264,6.84054335 C40.170067,6.38271095 40.0041286,6.02711921 39.7925251,5.77312511 C39.5815648,5.51977403 39.3365163,5.3429427 39.0580229,5.24391715 C38.7801727,5.1448916 38.4823841,5.10823929 38.1653004,5.13460323 C37.8482167,5.16096718 37.5279172,5.21691018 37.2050449,5.30243225 L33.1054678,6.38785513 L34.2979084,10.8896594 L34.2979084,10.8896594 Z M30.036252,4.99635328 L36.9220493,3.17338298 C38.5100405,2.75348894 39.7925251,2.78113893 40.7688599,3.25697597 C41.7445515,3.73345604 42.3947982,4.58417552 42.7196,5.80849138 C42.9009744,6.49523998 42.9511419,7.09067931 42.8681727,7.59480937 C42.7858467,8.09958245 42.6462784,8.5252637 42.450111,8.87185311 C42.2539436,9.21908555 42.0410537,9.48786918 41.8101551,9.67884702 C41.5798996,9.86918184 41.409459,10.0010016 41.2988335,10.0730201 L41.3097674,10.1135306 C41.5323048,10.0839515 41.7818555,10.0897387 42.0597057,10.1308922 C42.3375559,10.1733317 42.6154062,10.2832887 42.8926132,10.4614061 C43.1704634,10.6401665 43.4303048,10.8993047 43.6714943,11.2381779 C43.9126837,11.5783371 44.1075648,12.0303823 44.2574238,12.5955995 C44.4818907,13.4437469 44.7500934,14.1973699 45.0613885,14.8564685 C45.3733269,15.5162101 45.7026308,15.957967 46.0499436,16.182382 L43.3441198,16.8987097 C43.0739877,16.6395714 42.8720317,16.3257761 42.7388952,15.9573239 C42.6051154,15.5901578 42.4919172,15.2307079 42.3993004,14.8809034 C42.2250009,14.2211617 42.0333357,13.6630177 41.8262344,13.2071144 C41.619133,12.7505681 41.3657233,12.3924042 41.0666485,12.1332659 C40.7675736,11.8741277 40.4131859,11.7198021 40.0041286,11.6690033 C39.593785,11.6194905 39.0998291,11.6709324 38.5209744,11.8239719 L34.8060141,12.8077971 L36.3772828,18.7428997 L33.8534767,19.4110007 L30.036252,4.99635328 L30.036252,4.99635328 Z" id="Fill-24"></path>
                <polygon id="Fill-26" points="46.8934634 1.11590217 58.9484326 0.433011712 59.0751374 2.68487838 54.341393 2.95301898 55.0572432 15.5890646 52.4504678 15.7363169 51.7339744 3.10091428 47.0208115 3.36776884"></polygon>
                <polygon id="Fill-28" points="64.4427921 0.868788422 67.0437789 1.10284881 65.7066247 15.9541088 63.1056379 15.7200484"></polygon>
                <polygon id="Fill-30" points="73.9584546 1.99658652 83.9662079 4.42592755 83.4336617 6.61799307 75.9632211 4.80466812 75.0421991 8.59979007 81.5986925 10.1912721 81.0963753 12.2611632 74.5392388 10.6696812 72.9769744 17.1031267 70.4390185 16.4871106"></polygon>
                <polygon id="Fill-32" points="89.4479612 6.54108752 91.8662872 7.52684183 86.2327454 21.3338324 83.8144194 20.3480781"></polygon>
                <polygon id="Fill-34" points="98.2815401 10.4214743 107.484685 15.9508294 106.322474 17.8837566 99.3575665 13.6996058 97.3457251 17.0471837 103.79095 20.9194684 102.693699 22.7456538 96.2478308 18.8727261 93.9993022 22.6138341 101.089628 26.8738617 99.9280599 28.807432 90.599496 23.2028432"></polygon>
                <path d="M106.179883,31.2264846 L108.051513,32.9864387 C108.792447,33.6828326 109.490931,34.1541685 110.148896,34.3998033 C110.806218,34.6454381 111.434596,34.7200288 112.032746,34.6229323 C112.630253,34.5258358 113.19946,34.2866312 113.739724,33.9059616 C114.279989,33.525292 114.807389,33.0610293 115.32257,32.5131737 C115.838394,31.9653181 116.269319,31.4103892 116.616632,30.8483871 C116.963944,30.2863849 117.16783,29.7038061 117.228288,29.1012935 C117.288103,28.4981379 117.176191,27.8763346 116.88998,27.2352406 C116.604411,26.5935036 116.09116,25.9247597 115.351513,25.2283657 L113.479883,23.4684117 L106.179883,31.2264846 L106.179883,31.2264846 Z M113.037381,20.127907 L117.541513,24.3634998 C118.373134,25.1454158 118.959707,25.9652701 119.301231,26.8217768 C119.642755,27.6776405 119.774605,28.5335041 119.697425,29.3874387 C119.619601,30.2420163 119.364905,31.0869486 118.932693,31.9228786 C118.499839,32.7581655 117.930632,33.5516559 117.224429,34.3020638 C116.518226,35.0524717 115.761213,35.6691308 114.954033,36.151398 C114.145566,36.6343083 113.317804,36.9403873 112.46946,37.0696349 C111.621116,37.1988826 110.759266,37.1197907 109.883266,36.8310734 C109.007266,36.5429991 108.153777,36.0073609 107.321513,35.2248018 L102.818024,30.9892091 L113.037381,20.127907 L113.037381,20.127907 Z" id="Fill-36"></path>
                <path d="M18.81657,155.077158 C18.9593542,154.668838 19.0500414,154.266306 19.0879885,153.869561 C19.1259357,153.472172 19.0931339,153.08443 18.9895833,152.705689 C18.8847463,152.328234 18.7065877,151.968785 18.4544643,151.629911 C18.202341,151.289752 17.8569577,150.974028 17.4196009,150.680809 C16.7796449,150.252556 16.139689,150.012066 15.5016626,149.958695 C14.862993,149.905324 14.2526229,149.997276 13.6718388,150.233908 C13.0904115,150.470541 12.5456449,150.81713 12.036896,151.273034 C11.5287903,151.728937 11.0837154,152.243355 10.6997419,152.815646 C10.3170546,153.387936 10.011548,153.996879 9.7838652,154.640545 C9.55618238,155.284211 9.44362731,155.920161 9.4462,156.547109 C9.44877269,157.174699 9.5967022,157.772711 9.88998855,158.343072 C10.1826317,158.91279 10.6495744,159.411776 11.2895304,159.84003 C11.7609753,160.155111 12.2304907,160.351876 12.699363,160.429039 C13.1669489,160.506844 13.6261736,160.48884 14.0757507,160.375025 C14.5259709,160.261853 14.9511075,160.063159 15.3524467,159.778942 C15.7537859,159.495369 16.1236097,159.149423 16.4612749,158.741746 L18.5155656,160.116529 C17.9900943,160.804564 17.3964467,161.358207 16.7346229,161.776172 C16.0721559,162.19478 15.372385,162.469351 14.6340238,162.601171 C13.8956626,162.732347 13.1450811,162.713057 12.380993,162.543941 C11.6169048,162.374183 10.8701824,162.044956 10.1401824,161.556901 C9.24231454,160.956318 8.54768899,160.251564 8.05630573,159.443927 C7.5642793,158.635647 7.26391806,157.780427 7.15264934,156.878265 C7.04202379,155.974818 7.10955683,155.053366 7.35717797,154.113909 C7.60351278,153.17381 8.01642907,152.272291 8.5952837,151.407426 C9.16577709,150.554777 9.8385348,149.835234 10.6135568,149.248154 C11.3879357,148.661074 12.2137683,148.246967 13.0910546,148.004548 C13.9676978,147.763414 14.8758564,147.711972 15.8142441,147.852151 C16.7526317,147.991687 17.6704379,148.363354 18.5683057,148.963295 C19.2417066,149.414054 19.8141295,149.931045 20.2855744,150.514267 C20.7563762,151.098131 21.1011163,151.718006 21.3191515,152.376461 C21.5365436,153.033631 21.6169401,153.708805 21.5596978,154.401341 C21.5024555,155.093877 21.2895656,155.788984 20.9210282,156.484735 L18.81657,155.077158 L18.81657,155.077158 Z" id="Fill-38"></path>
                <path d="M31.4253101,157.912375 C30.7068872,157.634589 30.0302705,157.540065 29.3961031,157.628159 C28.7612925,157.716253 28.1862969,157.939382 27.6717595,158.298189 C27.1559357,158.65571 26.70057,159.113542 26.3050194,159.669757 C25.9088256,160.226615 25.5865965,160.825913 25.3383322,161.468293 C25.090711,162.110673 24.9254159,162.771057 24.8450194,163.448803 C24.7639797,164.12655 24.7929225,164.772145 24.9337771,165.383017 C25.0739885,165.994532 25.3492661,166.546245 25.760896,167.038158 C26.1712396,167.529428 26.7359445,167.914598 27.4543674,168.191098 C28.1727903,168.468884 28.8487639,168.563409 29.4835744,168.475958 C30.118385,168.388506 30.6940238,168.165377 31.2085612,167.806571 C31.7224555,167.447764 32.1784643,166.990574 32.5746581,166.433716 C32.970852,165.878144 33.2930811,165.278204 33.5419885,164.635181 C33.7902529,163.992801 33.9542617,163.333059 34.0359445,162.655313 C34.116341,161.976924 34.0867551,161.332615 33.9465436,160.7211 C33.805689,160.108942 33.5304115,159.557871 33.1200678,159.066601 C32.7084379,158.574046 32.143733,158.190161 31.4253101,157.912375 M32.1707463,155.984592 C33.1785965,156.374264 34.0095744,156.911831 34.6643233,157.599866 C35.3177859,158.285972 35.7969489,159.057599 36.104385,159.914749 C36.4098916,160.770613 36.5456009,161.684991 36.5115128,162.655956 C36.4767815,163.626921 36.2741824,164.590812 35.9037154,165.547631 C35.5287463,166.518595 35.0283586,167.374459 34.4012661,168.116508 C33.7741736,168.859199 33.0589665,169.444993 32.2562881,169.873247 C31.4536097,170.300857 30.5808256,170.546492 29.6372925,170.609508 C28.6937595,170.671881 27.7174247,170.508553 26.7095744,170.118881 C25.7017242,169.729852 24.8694599,169.194214 24.2127815,168.513896 C23.5561031,167.833578 23.0750106,167.064522 22.7688608,166.208658 C22.4620678,165.351509 22.3263586,164.437773 22.361733,163.467451 C22.3964643,162.496486 22.600993,161.526165 22.9759621,160.555843 C23.3457859,159.598382 23.8442441,158.748948 24.4713366,158.006256 C25.0984291,157.264208 25.812993,156.679057 26.6163145,156.250804 C27.418993,155.821907 28.2930634,155.573057 29.2391692,155.504897 C30.1846317,155.43545 31.1622529,155.595563 32.1707463,155.984592" id="Fill-40"></path>
                <polygon id="Fill-42" points="41.3969815 159.598446 44.9350696 160.042132 47.485889 171.77473 47.5257656 171.779874 52.7959154 161.029815 56.2941269 161.467714 54.4926026 175.819345 52.1006467 175.51841 53.4911841 164.443624 53.4506643 164.437837 48.0795366 175.013637 46.0085233 174.753856 43.4191137 163.179441 43.3779507 163.17494 41.9880564 174.249726 39.5954573 173.949434"></polygon>
                <path d="M63.3404599,167.802648 L67.028407,167.423908 C67.3107595,167.394972 67.5956846,167.325525 67.8831824,167.214282 C68.1706802,167.103682 68.4285921,166.944855 68.6594907,166.737802 C68.8884599,166.530749 69.0653322,166.267752 69.1894643,165.950099 C69.3123101,165.631802 69.3509004,165.244059 69.3039489,164.788156 C69.255711,164.318106 69.1483013,163.934865 68.982363,163.639074 C68.8164247,163.344569 68.6093233,163.118225 68.3636317,162.960042 C68.1160106,162.803144 67.8413762,162.705405 67.5384423,162.668752 C67.2361515,162.631457 66.9171383,162.630171 66.5807595,162.664894 L62.8522925,163.04685 L63.3404599,167.802648 L63.3404599,167.802648 Z M60.1220282,161.250243 L66.4707771,160.598861 C67.4914907,160.494691 68.3404775,160.556422 69.0158079,160.785981 C69.6911383,161.01554 70.2256141,161.333836 70.6211648,161.741513 C71.0160722,162.148547 71.3042132,162.608308 71.4849445,163.118225 C71.6663189,163.629429 71.7801604,164.106552 71.8251824,164.548952 C71.8721339,164.99328 71.8560546,165.480692 71.7820899,166.0099 C71.7081251,166.540394 71.5183894,167.045167 71.2141692,167.523576 C70.9105921,168.003271 70.4513674,168.420593 69.835852,168.776185 C69.2209797,169.129848 68.402222,169.360693 67.3808652,169.464863 L63.5507771,169.85775 L64.1180546,175.379389 L61.5981075,175.638527 L60.1220282,161.250243 L60.1220282,161.250243 Z" id="Fill-44"></path>
                <path d="M78.3645674,167.211131 L82.6043559,165.97074 L78.7768405,160.611143 L78.7183119,160.628504 L78.3645674,167.211131 L78.3645674,167.211131 Z M76.7733604,158.601053 L79.3601974,157.844858 L88.7704441,170.161321 L86.1643119,170.923303 L83.7865057,167.629739 L78.2442943,169.252086 L78.0159683,173.30699 L75.5075982,174.041322 L76.7733604,158.601053 L76.7733604,158.601053 Z" id="Fill-46"></path>
                <polygon id="Fill-48" points="86.6793639 155.3516 89.0333727 154.083559 99.9042626 160.331171 99.939637 160.31188 94.8843066 150.93146 97.0074167 149.788165 103.87006 162.520664 101.514765 163.789348 90.6721744 157.550096 90.6187912 157.578389 95.664474 166.940161 93.542007 168.084742"></polygon>
                <polygon id="Fill-50" points="108.721183 151.832528 98.9050952 148.598122 101.153624 146.706991 108.257456 149.204493 106.969183 141.81873 109.139888 139.993188 110.659703 150.202465 114.310989 154.543513 112.373113 156.173577"></polygon>
            </g>
        </g>
    </g>
</svg>